<?xml version="1.0" encoding="iso-8859-1"?>
<!-- Generator: Adobe Illustrator 19.1.0, SVG Export Plug-In . SVG Version: 6.00 Build 0)  -->
<svg version="1.1" id="Capa_1" xmlns="http://www.w3.org/2000/svg" xmlns:xlink="http://www.w3.org/1999/xlink" x="0px" y="0px"
	 viewBox="0 0 332.293 332.293" style="enable-background:new 0 0 332.293 332.293;" xml:space="preserve">
<g>
	<path d="M302.016,121.512h-39.692v-80.85c0-20.077-16.337-36.408-36.414-36.408H36.402C16.331,4.255,0,20.592,0,40.663v127.862
		c0,20.077,16.331,36.421,36.402,36.421h2.629l-0.398,54.024l78.208-54.024h4.1v48.606c0,16.697,13.586,30.29,30.29,30.29h86.364
		l63.973,44.197l-0.321-44.197h0.758c16.703,0,30.29-13.593,30.29-30.29v-101.75C332.306,135.098,318.713,121.512,302.016,121.512z
		 M112.842,192.085l-61.177,42.25l0.315-42.25H36.402c-12.989,0-23.548-10.572-23.548-23.567V40.663
		c0-12.989,10.566-23.554,23.548-23.554h189.502c12.989,0,23.561,10.566,23.561,23.554v80.85v47.006
		c0,12.995-10.572,23.567-23.561,23.567H120.947H112.842z M319.452,253.545c0,9.615-7.821,17.436-17.436,17.436h-13.715
		l0.244,32.423l-46.942-32.423h-90.368c-9.615,0-17.436-7.821-17.436-17.436v-48.606h92.109c20.077,0,36.414-16.343,36.414-36.421
		v-34.152h39.692c9.615,0,17.436,7.821,17.436,17.436V253.545z M95.349,101.589c0,8.284-6.716,14.994-15,14.994s-15-6.71-15-14.994
		s6.716-14.994,15-14.994S95.349,93.298,95.349,101.589z M146.153,101.589c0,8.284-6.703,14.994-14.987,14.994s-15-6.71-15-14.994
		s6.716-14.994,15-14.994S146.153,93.298,146.153,101.589z M196.963,103.247c0,8.278-6.716,14.987-14.987,14.987
		c-8.284,0-15-6.71-15-14.987s6.716-14.994,15-14.994C190.247,88.253,196.963,94.969,196.963,103.247z"/>
</g>
<g>
</g>
<g>
</g>
<g>
</g>
<g>
</g>
<g>
</g>
<g>
</g>
<g>
</g>
<g>
</g>
<g>
</g>
<g>
</g>
<g>
</g>
<g>
</g>
<g>
</g>
<g>
</g>
<g>
</g>
</svg>
